<?xml version="1.0" encoding="UTF-8" standalone="no"?>
<!-- Created with Inkscape (http://www.inkscape.org/) -->

<svg
   xmlns:dc="http://purl.org/dc/elements/1.1/"
   xmlns:cc="http://creativecommons.org/ns#"
   xmlns:rdf="http://www.w3.org/1999/02/22-rdf-syntax-ns#"
   xmlns:svg="http://www.w3.org/2000/svg"
   xmlns="http://www.w3.org/2000/svg"
   xmlns:sodipodi="http://sodipodi.sourceforge.net/DTD/sodipodi-0.dtd"
   xmlns:inkscape="http://www.inkscape.org/namespaces/inkscape"
   width="1020mm"
   height="1024mm"
   viewBox="0 0 1020 1024"
   version="1.1"
   id="svg8"
   inkscape:version="0.92.4 (5da689c313, 2019-01-14)"
   sodipodi:docname="alien.svg">
  <defs
     id="defs2" />
  <sodipodi:namedview
     id="base"
     pagecolor="#ffffff"
     bordercolor="#666666"
     borderopacity="1.0"
     inkscape:pageopacity="0.0"
     inkscape:pageshadow="2"
     inkscape:zoom="0.175"
     inkscape:cx="3108.0423"
     inkscape:cy="1729.0242"
     inkscape:document-units="mm"
     inkscape:current-layer="layer1"
     showgrid="false"
     inkscape:window-width="1680"
     inkscape:window-height="987"
     inkscape:window-x="3832"
     inkscape:window-y="-8"
     inkscape:window-maximized="1" />
  <metadata
     id="metadata5">
    <rdf:RDF>
      <cc:Work
         rdf:about="">
        <dc:format>image/svg+xml</dc:format>
        <dc:type
           rdf:resource="http://purl.org/dc/dcmitype/StillImage" />
        <dc:title></dc:title>
      </cc:Work>
    </rdf:RDF>
  </metadata>
  <g
     inkscape:label="Layer 1"
     inkscape:groupmode="layer"
     id="layer1"
     transform="translate(0,727)">
    <path
       inkscape:connector-curvature="0"
       id="path3728"
       d="M 61.836921,512.06845 V 323.30716 h 188.761299 188.7613 v 188.76129 188.7613 H 250.59822 61.836921 Z"
       style="fill:#fcfcfc;stroke-width:0.3686744" />
    <path
       inkscape:connector-curvature="0"
       id="path3726"
       d="m 502.01398,295.43538 c -13.50688,-3.37269 -31.425,-15.26408 -50.72273,-33.66227 -4.6813,-4.46307 -18.56555,-16.23983 -30.85392,-26.17056 C 323.70532,157.42948 264.43377,99.527842 212.49834,32.469583 144.26137,-55.636987 96.193326,-158.79822 71.064273,-271.06914 60.250966,-319.38053 55.914878,-356.73707 55.940589,-401.36368 c 0.03315,-57.60249 7.995364,-99.84402 26.197502,-138.98502 39.044369,-83.95907 119.866459,-131.99754 274.463579,-163.13374 31.83047,-6.41071 117.06524,-20.74495 135.11885,-22.72344 19.78997,-2.16872 53.37347,0.18819 86.17817,6.04779 4.68128,0.83619 23.09518,4.0552 40.91977,7.15334 109.72941,19.07237 171.98015,37.57633 223.64148,66.47713 79.30088,44.3632 117.7695,106.58043 127.48795,206.19243 1.49921,15.36714 1.51755,62.33895 0.0321,79.24736 -5.41669,61.60717 -18.80513,121.48993 -41.03962,183.55935 -53.8676,150.375583 -141.54365,265.570543 -301.47214,396.09545 -38.94792,31.78715 -48.95084,40.21138 -58.61172,49.36139 -26.24246,24.85475 -45.58508,32.81476 -66.84134,27.50702 z m 26.0578,-54.05291 c 140.49628,-109.53948 214.6461,-181.515467 273.466,-265.449017 39.81613,-56.81598 74.16983,-127.279173 95.36942,-195.613173 12.43047,-40.06819 14.7379,-48.14448 18.13242,-63.46511 4.33951,-19.58622 8.42271,-43.6324 10.99834,-64.76954 2.72452,-22.35914 2.71147,-85.71961 -0.0205,-103.74107 -7.82206,-51.58225 -22.34182,-85.30786 -49.04138,-113.91061 -17.34857,-18.58513 -32.54682,-30.23414 -56.07046,-42.97617 -55.44095,-30.03065 -115.41916,-46.31399 -249.38951,-67.70616 -54.80414,-8.75107 -62.32003,-8.9648 -97.88138,-2.78388 -7.02196,1.22048 -19.70925,3.25307 -28.19409,4.51685 -95.41761,14.21222 -168.54141,32.60577 -216.14049,54.36795 -35.47602,16.21952 -57.69251,31.52788 -79.21212,54.58141 -26.69964,28.60275 -41.21939,62.32836 -49.04149,113.91061 -2.732861,18.02146 -2.745945,81.38193 -0.0202,103.74107 14.11948,115.87442 58.85947,232.38452 125.62251,327.141203 40.28233,57.17259 96.41998,117.065656 165.27218,176.328117 45.47442,39.14079 117.74999,96.38397 121.78997,96.45922 0.39044,0.009 6.85373,-4.77695 14.36301,-10.6317 z m -176.2578,-361.14534 c -38.7813,-1.46432 -68.4434,-7.71849 -90.07706,-18.99262 -36.73645,-19.14472 -56.73323,-50.3554 -85.47711,-133.41143 -10.29915,-29.75963 -23.40035,-72.6915 -23.40035,-76.68166 0,-3.89529 2.86225,-13.4101 5.79338,-19.25871 0.9743,-1.94412 3.99328,-4.98857 6.70878,-6.76546 6.80347,-4.45197 12.6177,-4.26396 37.80481,1.22254 109.30805,23.81048 135.39503,38.77233 186.51279,106.97223 22.43766,29.93573 71.4134,101.48618 74.91357,109.44402 4.03894,9.18285 2.29508,16.86052 -5.90565,26.0002 -9.05841,10.09554 -9.68242,10.27381 -39.31372,11.23277 -24.44059,0.79093 -50.48707,0.88273 -67.55944,0.23821 z m 248.95916,-0.23761 c -25.43567,-0.87591 -26.63696,-1.25509 -35.58995,-11.23316 -8.20072,-9.13968 -9.94462,-16.81735 -5.90566,-26.0002 3.50016,-7.95784 52.4759,-79.5083 74.91352,-109.44402 51.11776,-68.1999 77.20475,-83.16175 186.5128,-106.97223 25.18708,-5.4865 31.00136,-5.67451 37.80488,-1.22254 2.71549,1.77689 5.73438,4.82134 6.70878,6.76546 2.93105,5.84861 5.79328,15.36342 5.79328,19.25871 0,6.6429 -22.38891,75.93316 -35.7735,110.71313 -31.8064,82.64973 -63.47838,108.94133 -140.83851,116.91284 -14.58915,1.50334 -65.97868,2.17408 -93.62564,1.22201 z"
       style="fill:#323334;stroke-width:1.08072591" />
  </g>
</svg>
